<svg xmlns="http://www.w3.org/2000/svg" xmlns:v="https://svgstorm.com"
viewBox = "0 0 253 44"
width="253"
height="44">
<g fill="None" fill-opacity="0.0" stroke="#000000" stroke-opacity="0.00" stroke-width="0.3"><path d="
M 0.00 8.00 
C 7.13 1.09 12.71 7.42 23.00 5.00 C 33.29 2.58 33.46 12.91 33.00 21.00 C 32.54 29.09 34.59 39.85 24.00 38.00 C 13.41 36.15 8.99 40.72 0.00 36.00
L 0.00 44.00
L 253.00 44.00
L 253.00 0.00
L 0.00 0.00
L 0.00 8.00
M 74.00 7.00 
C 76.51 8.42 74.13 13.98 70.77 12.21 C 67.41 10.44 70.14 4.82 74.00 7.00
M 105.00 7.00 
C 107.82 8.64 105.20 14.44 101.77 12.21 C 98.34 9.98 101.43 4.93 105.00 7.00
M 43.00 35.00 
C 43.00 26.00 43.00 17.00 43.00 8.00
C 53.50 6.97 65.38 8.19 65.99 21.01 C 66.60 33.83 54.23 37.28 43.00 35.00
M 149.00 8.00 
C 149.00 17.00 149.00 26.00 149.00 35.00
C 141.73 36.90 143.81 26.74 144.00 22.00 C 144.19 17.26 141.24 6.11 149.00 8.00
M 181.00 16.00 
C 178.75 15.06 165.57 11.24 167.36 16.70 C 169.14 22.16 178.99 18.10 180.92 24.08 C 182.85 30.07 180.00 34.79 173.93 35.93 C 167.85 37.06 160.10 33.98 161.00 27.00
C 164.28 25.53 173.58 34.87 175.75 28.75 C 177.91 22.62 165.95 24.65 163.25 20.75 C 160.56 16.84 161.36 9.96 167.23 8.23 C 173.10 6.50 181.69 8.88 181.00 16.00
M 120.00 15.00 
C 116.40 20.89 115.46 29.45 121.00 35.00
C 107.28 41.05 114.22 21.26 108.00 19.00
C 106.69 14.42 112.95 15.11 111.00 10.00
C 117.34 7.33 115.50 15.40 120.00 15.00
M 192.00 10.00 
C 191.22 13.31 192.54 14.85 195.00 16.00
C 192.17 19.71 191.29 24.93 192.00 31.00
C 199.84 32.39 192.42 38.55 187.77 34.23 C 183.12 29.91 189.72 20.19 183.00 19.00
C 184.42 14.90 185.49 8.56 192.00 10.00
M 232.00 20.00 
C 223.37 17.06 224.81 29.51 225.00 35.00
C 215.37 35.83 221.92 21.18 220.00 15.00
C 224.92 16.82 233.65 10.53 232.00 20.00
M 75.00 15.00 
C 75.00 21.67 75.00 28.33 75.00 35.00
C 67.46 37.37 69.01 29.91 69.00 25.00 C 68.99 20.09 67.42 12.69 75.00 15.00
M 97.00 15.00 
C 95.72 22.29 99.28 33.27 95.69 39.69 C 92.11 46.12 78.56 43.99 78.00 37.00
C 82.63 34.81 91.15 43.63 91.00 34.00
C 82.53 37.44 75.54 31.76 77.33 22.33 C 79.12 12.90 89.51 15.30 97.00 15.00
M 106.00 15.00 
C 106.00 21.67 106.00 28.33 106.00 35.00
C 98.46 37.37 100.01 29.91 100.00 25.00 C 99.99 20.09 98.42 12.69 106.00 15.00
M 140.00 35.00 
C 135.17 32.16 127.96 39.61 123.78 34.22 C 119.60 28.84 122.76 23.94 130.01 23.01 C 137.26 22.08 128.68 17.22 123.00 21.00
C 123.03 15.26 132.34 12.30 137.22 15.78 C 142.10 19.26 139.25 29.70 140.00 35.00
M 212.00 15.00 
C 223.31 19.18 214.66 41.59 202.93 35.07 C 191.20 28.56 198.75 10.11 212.00 15.00
M 251.00 27.00 
C 246.67 27.00 242.33 27.00 238.00 27.00
C 239.31 34.61 246.53 28.31 251.00 29.00
C 248.14 41.44 229.23 35.65 232.00 23.00 C 234.77 10.35 254.46 13.31 251.00 27.00 Z"/>
</g>
<g fill="None" fill-opacity="0.0" stroke="#C82071" stroke-opacity="0.96" stroke-width="0.3"><path d="
M 0.00 8.00 
L 0.00 36.00
C 8.99 40.72 13.41 36.15 24.00 38.00 C 34.59 39.85 32.54 29.09 33.00 21.00 C 33.46 12.91 33.29 2.58 23.00 5.00 C 12.71 7.42 7.13 1.09 0.00 8.00
M 16.00 22.00 
C 12.20 23.15 10.47 29.23 7.00 28.00
C 13.73 23.46 10.88 18.92 7.00 14.00
C 10.77 14.97 13.55 19.14 16.00 22.00
M 27.00 29.00 
C 25.44 29.77 20.92 29.20 20.00 28.00
C 21.45 26.04 24.80 27.44 27.00 27.00
C 29.08 26.71 27.02 28.99 27.00 29.00 Z"/>
</g>
<g fill="None" fill-opacity="0.0" stroke="#C82071" stroke-opacity="0.71" stroke-width="0.3"><path d="
M 74.00 7.00 
C 70.14 4.82 67.41 10.44 70.77 12.21 C 74.13 13.98 76.51 8.42 74.00 7.00 Z"/>
</g>
<g fill="None" fill-opacity="0.0" stroke="#C81F71" stroke-opacity="0.71" stroke-width="0.3"><path d="
M 105.00 7.00 
C 101.43 4.93 98.34 9.98 101.77 12.21 C 105.20 14.44 107.82 8.64 105.00 7.00 Z"/>
</g>
<g fill="None" fill-opacity="0.0" stroke="#C92070" stroke-opacity="0.82" stroke-width="0.3"><path d="
M 43.00 35.00 
C 54.23 37.28 66.60 33.83 65.99 21.01 C 65.38 8.19 53.50 6.97 43.00 8.00
C 43.00 17.00 43.00 26.00 43.00 35.00
M 49.00 30.00 
C 49.00 24.33 49.00 18.67 49.00 13.00
C 63.24 9.00 63.83 34.83 49.00 30.00 Z"/>
</g>
<g fill="None" fill-opacity="0.0" stroke="#C92071" stroke-opacity="0.92" stroke-width="0.3"><path d="
M 149.00 8.00 
C 141.24 6.11 144.19 17.26 144.00 22.00 C 143.81 26.74 141.73 36.90 149.00 35.00
C 149.00 26.00 149.00 17.00 149.00 8.00 Z"/>
</g>
<g fill="None" fill-opacity="0.0" stroke="#C82070" stroke-opacity="0.80" stroke-width="0.3"><path d="
M 181.00 16.00 
C 181.69 8.88 173.10 6.50 167.23 8.23 C 161.36 9.96 160.56 16.84 163.25 20.75 C 165.95 24.65 177.91 22.62 175.75 28.75 C 173.58 34.87 164.28 25.53 161.00 27.00
C 160.10 33.98 167.85 37.06 173.93 35.93 C 180.00 34.79 182.85 30.07 180.92 24.08 C 178.99 18.10 169.14 22.16 167.36 16.70 C 165.57 11.24 178.75 15.06 181.00 16.00 Z"/>
</g>
<g fill="None" fill-opacity="0.0" stroke="#C82071" stroke-opacity="0.80" stroke-width="0.3"><path d="
M 120.00 15.00 
C 115.50 15.40 117.34 7.33 111.00 10.00
C 112.95 15.11 106.69 14.42 108.00 19.00
C 114.22 21.26 107.28 41.05 121.00 35.00
C 115.46 29.45 116.40 20.89 120.00 15.00 Z"/>
</g>
<g fill="None" fill-opacity="0.0" stroke="#C92071" stroke-opacity="0.79" stroke-width="0.3"><path d="
M 192.00 10.00 
C 185.49 8.56 184.42 14.90 183.00 19.00
C 189.72 20.19 183.12 29.91 187.77 34.23 C 192.42 38.55 199.84 32.39 192.00 31.00
C 191.29 24.93 192.17 19.71 195.00 16.00
C 192.54 14.85 191.22 13.31 192.00 10.00 Z"/>
</g>
<g fill="None" fill-opacity="0.0" stroke="#000000" stroke-opacity="0.00" stroke-width="0.3"><path d="
M 49.00 30.00 
C 63.83 34.83 63.24 9.00 49.00 13.00
C 49.00 18.67 49.00 24.33 49.00 30.00 Z"/>
</g>
<g fill="None" fill-opacity="0.0" stroke="#000000" stroke-opacity="0.00" stroke-width="0.3"><path d="
M 16.00 22.00 
C 13.55 19.14 10.77 14.97 7.00 14.00
C 10.88 18.92 13.73 23.46 7.00 28.00
C 10.47 29.23 12.20 23.15 16.00 22.00 Z"/>
</g>
<g fill="None" fill-opacity="0.0" stroke="#C82070" stroke-opacity="0.86" stroke-width="0.3"><path d="
M 232.00 20.00 
C 233.65 10.53 224.92 16.82 220.00 15.00
C 221.92 21.18 215.37 35.83 225.00 35.00
C 224.81 29.51 223.37 17.06 232.00 20.00 Z"/>
</g>
<g fill="None" fill-opacity="0.0" stroke="#C92171" stroke-opacity="0.77" stroke-width="0.3"><path d="
M 75.00 15.00 
C 67.42 12.69 68.99 20.09 69.00 25.00 C 69.01 29.91 67.46 37.37 75.00 35.00
C 75.00 28.33 75.00 21.67 75.00 15.00 Z"/>
</g>
<g fill="None" fill-opacity="0.0" stroke="#C82071" stroke-opacity="0.80" stroke-width="0.3"><path d="
M 97.00 15.00 
C 89.51 15.30 79.12 12.90 77.33 22.33 C 75.54 31.76 82.53 37.44 91.00 34.00
C 91.15 43.63 82.63 34.81 78.00 37.00
C 78.56 43.99 92.11 46.12 95.69 39.69 C 99.28 33.27 95.72 22.29 97.00 15.00
M 89.00 19.00 
C 93.89 20.95 91.12 32.75 85.33 29.67 C 79.54 26.58 84.25 17.11 89.00 19.00 Z"/>
</g>
<g fill="None" fill-opacity="0.0" stroke="#C92171" stroke-opacity="0.77" stroke-width="0.3"><path d="
M 106.00 15.00 
C 98.42 12.69 99.99 20.09 100.00 25.00 C 100.01 29.91 98.46 37.37 106.00 35.00
C 106.00 28.33 106.00 21.67 106.00 15.00 Z"/>
</g>
<g fill="None" fill-opacity="0.0" stroke="#C81F70" stroke-opacity="0.81" stroke-width="0.3"><path d="
M 140.00 35.00 
C 139.25 29.70 142.10 19.26 137.22 15.78 C 132.34 12.30 123.03 15.26 123.00 21.00
C 128.68 17.22 137.26 22.08 130.01 23.01 C 122.76 23.94 119.60 28.84 123.78 34.22 C 127.96 39.61 135.17 32.16 140.00 35.00
M 135.00 26.00 
C 133.03 37.29 122.57 26.17 135.00 26.00 Z"/>
</g>
<g fill="None" fill-opacity="0.0" stroke="#C82070" stroke-opacity="0.81" stroke-width="0.3"><path d="
M 212.00 15.00 
C 198.75 10.11 191.20 28.56 202.93 35.07 C 214.66 41.59 223.31 19.18 212.00 15.00
M 209.00 19.00 
C 213.87 21.09 210.91 33.33 205.33 30.67 C 199.74 28.00 203.22 16.52 209.00 19.00 Z"/>
</g>
<g fill="None" fill-opacity="0.0" stroke="#C81F70" stroke-opacity="0.79" stroke-width="0.3"><path d="
M 251.00 27.00 
C 254.46 13.31 234.77 10.35 232.00 23.00 C 229.23 35.65 248.14 41.44 251.00 29.00
C 246.53 28.31 239.31 34.61 238.00 27.00
C 242.33 27.00 246.67 27.00 251.00 27.00
M 246.00 23.00 
C 243.18 23.16 236.41 23.78 239.26 20.25 C 242.11 16.73 245.68 20.20 246.00 23.00 Z"/>
</g>
<g fill="None" fill-opacity="0.0" stroke="#000000" stroke-opacity="0.00" stroke-width="0.3"><path d="
M 89.00 19.00 
C 84.25 17.11 79.54 26.58 85.33 29.67 C 91.12 32.75 93.89 20.95 89.00 19.00 Z"/>
</g>
<g fill="None" fill-opacity="0.0" stroke="#000000" stroke-opacity="0.00" stroke-width="0.3"><path d="
M 209.00 19.00 
C 203.22 16.52 199.74 28.00 205.33 30.67 C 210.91 33.33 213.87 21.09 209.00 19.00 Z"/>
</g>
<g fill="None" fill-opacity="0.0" stroke="#000000" stroke-opacity="0.00" stroke-width="0.3"><path d="
M 246.00 23.00 
C 245.68 20.20 242.11 16.73 239.26 20.25 C 236.41 23.78 243.18 23.16 246.00 23.00 Z"/>
</g>
<g fill="None" fill-opacity="0.0" stroke="#000000" stroke-opacity="0.00" stroke-width="0.3"><path d="
M 135.00 26.00 
C 122.57 26.17 133.03 37.29 135.00 26.00 Z"/>
</g>
<g fill="None" fill-opacity="0.0" stroke="#000000" stroke-opacity="0.00" stroke-width="0.3"><path d="
M 27.00 29.00 
C 27.20 28.90 27.20 27.10 27.00 27.00
C 24.80 27.44 21.45 26.04 20.00 28.00
C 20.92 29.20 25.44 29.77 27.00 29.00 Z"/>
</g>
<g fill="None" fill-opacity="0.0" stroke="#C92071" stroke-opacity="0.76" stroke-width="0.3"><path d="
M 27.00 29.00 
C 27.02 28.99 29.08 26.71 27.00 27.00
C 27.20 27.10 27.20 28.90 27.00 29.00 Z"/>
</g>
<g fill="#000000" fill-opacity="0.00" stroke="None">
<path d="
M 0.00 8.00 
C 7.13 1.09 12.71 7.42 23.00 5.00 C 33.29 2.58 33.46 12.91 33.00 21.00 C 32.54 29.09 34.59 39.85 24.00 38.00 C 13.41 36.15 8.99 40.72 0.00 36.00
L 0.00 44.00
L 253.00 44.00
L 253.00 0.00
L 0.00 0.00
L 0.00 8.00
M 74.00 7.00 
C 76.51 8.42 74.13 13.98 70.77 12.21 C 67.41 10.44 70.14 4.82 74.00 7.00
M 105.00 7.00 
C 107.82 8.64 105.20 14.44 101.77 12.21 C 98.34 9.98 101.43 4.93 105.00 7.00
M 43.00 35.00 
C 43.00 26.00 43.00 17.00 43.00 8.00
C 53.50 6.97 65.38 8.19 65.99 21.01 C 66.60 33.83 54.23 37.28 43.00 35.00
M 149.00 8.00 
C 149.00 17.00 149.00 26.00 149.00 35.00
C 141.73 36.90 143.81 26.74 144.00 22.00 C 144.19 17.26 141.24 6.11 149.00 8.00
M 181.00 16.00 
C 178.75 15.06 165.57 11.24 167.36 16.70 C 169.14 22.16 178.99 18.10 180.92 24.08 C 182.85 30.07 180.00 34.79 173.93 35.93 C 167.85 37.06 160.10 33.98 161.00 27.00
C 164.28 25.53 173.58 34.87 175.75 28.75 C 177.91 22.62 165.95 24.65 163.25 20.75 C 160.56 16.84 161.36 9.96 167.23 8.23 C 173.10 6.50 181.69 8.88 181.00 16.00
M 120.00 15.00 
C 116.40 20.89 115.46 29.45 121.00 35.00
C 107.28 41.05 114.22 21.26 108.00 19.00
C 106.69 14.42 112.95 15.11 111.00 10.00
C 117.34 7.33 115.50 15.40 120.00 15.00
M 192.00 10.00 
C 191.22 13.31 192.54 14.85 195.00 16.00
C 192.17 19.71 191.29 24.93 192.00 31.00
C 199.84 32.39 192.42 38.55 187.77 34.23 C 183.12 29.91 189.72 20.19 183.00 19.00
C 184.42 14.90 185.49 8.56 192.00 10.00
M 232.00 20.00 
C 223.37 17.06 224.81 29.51 225.00 35.00
C 215.37 35.83 221.92 21.18 220.00 15.00
C 224.92 16.82 233.65 10.53 232.00 20.00
M 75.00 15.00 
C 75.00 21.67 75.00 28.33 75.00 35.00
C 67.46 37.37 69.01 29.91 69.00 25.00 C 68.99 20.09 67.42 12.69 75.00 15.00
M 97.00 15.00 
C 95.72 22.29 99.28 33.27 95.69 39.69 C 92.11 46.12 78.56 43.99 78.00 37.00
C 82.63 34.81 91.15 43.63 91.00 34.00
C 82.53 37.44 75.54 31.76 77.33 22.33 C 79.12 12.90 89.51 15.30 97.00 15.00
M 106.00 15.00 
C 106.00 21.67 106.00 28.33 106.00 35.00
C 98.46 37.37 100.01 29.91 100.00 25.00 C 99.99 20.09 98.42 12.69 106.00 15.00
M 140.00 35.00 
C 135.17 32.16 127.96 39.61 123.78 34.22 C 119.60 28.84 122.76 23.94 130.01 23.01 C 137.26 22.08 128.68 17.22 123.00 21.00
C 123.03 15.26 132.34 12.30 137.22 15.78 C 142.10 19.26 139.25 29.70 140.00 35.00
M 212.00 15.00 
C 223.31 19.18 214.66 41.59 202.93 35.07 C 191.20 28.56 198.75 10.11 212.00 15.00
M 251.00 27.00 
C 246.67 27.00 242.33 27.00 238.00 27.00
C 239.31 34.61 246.53 28.31 251.00 29.00
C 248.14 41.44 229.23 35.65 232.00 23.00 C 234.77 10.35 254.46 13.31 251.00 27.00 Z"/>
</g>
<g fill="#C82071" fill-opacity="0.96" stroke="None">
<path d="
M 0.00 8.00 
L 0.00 36.00
C 8.99 40.72 13.41 36.15 24.00 38.00 C 34.59 39.85 32.54 29.09 33.00 21.00 C 33.46 12.91 33.29 2.58 23.00 5.00 C 12.71 7.42 7.13 1.09 0.00 8.00
M 16.00 22.00 
C 12.20 23.15 10.47 29.23 7.00 28.00
C 13.73 23.46 10.88 18.92 7.00 14.00
C 10.77 14.97 13.55 19.14 16.00 22.00
M 27.00 29.00 
C 25.44 29.77 20.92 29.20 20.00 28.00
C 21.45 26.04 24.80 27.44 27.00 27.00
C 29.08 26.71 27.02 28.99 27.00 29.00 Z"/>
</g>
<g fill="#C82071" fill-opacity="0.71" stroke="None">
<path d="
M 74.00 7.00 
C 70.14 4.82 67.41 10.44 70.77 12.21 C 74.13 13.98 76.51 8.42 74.00 7.00 Z"/>
</g>
<g fill="#C81F71" fill-opacity="0.71" stroke="None">
<path d="
M 105.00 7.00 
C 101.43 4.93 98.34 9.98 101.77 12.21 C 105.20 14.44 107.82 8.64 105.00 7.00 Z"/>
</g>
<g fill="#C92070" fill-opacity="0.82" stroke="None">
<path d="
M 43.00 35.00 
C 54.23 37.28 66.60 33.83 65.99 21.01 C 65.38 8.19 53.50 6.97 43.00 8.00
C 43.00 17.00 43.00 26.00 43.00 35.00
M 49.00 30.00 
C 49.00 24.33 49.00 18.67 49.00 13.00
C 63.24 9.00 63.83 34.83 49.00 30.00 Z"/>
</g>
<g fill="#C92071" fill-opacity="0.92" stroke="None">
<path d="
M 149.00 8.00 
C 141.24 6.11 144.19 17.26 144.00 22.00 C 143.81 26.74 141.73 36.90 149.00 35.00
C 149.00 26.00 149.00 17.00 149.00 8.00 Z"/>
</g>
<g fill="#C82070" fill-opacity="0.80" stroke="None">
<path d="
M 181.00 16.00 
C 181.69 8.88 173.10 6.50 167.23 8.23 C 161.36 9.96 160.56 16.84 163.25 20.75 C 165.95 24.65 177.91 22.62 175.75 28.75 C 173.58 34.87 164.28 25.53 161.00 27.00
C 160.10 33.98 167.85 37.06 173.93 35.93 C 180.00 34.79 182.85 30.07 180.92 24.08 C 178.99 18.10 169.14 22.16 167.36 16.70 C 165.57 11.24 178.75 15.06 181.00 16.00 Z"/>
</g>
<g fill="#C82071" fill-opacity="0.80" stroke="None">
<path d="
M 120.00 15.00 
C 115.50 15.40 117.34 7.33 111.00 10.00
C 112.95 15.11 106.69 14.42 108.00 19.00
C 114.22 21.26 107.28 41.05 121.00 35.00
C 115.46 29.45 116.40 20.89 120.00 15.00 Z"/>
</g>
<g fill="#C92071" fill-opacity="0.79" stroke="None">
<path d="
M 192.00 10.00 
C 185.49 8.56 184.42 14.90 183.00 19.00
C 189.72 20.19 183.12 29.91 187.77 34.23 C 192.42 38.55 199.84 32.39 192.00 31.00
C 191.29 24.93 192.17 19.71 195.00 16.00
C 192.54 14.85 191.22 13.31 192.00 10.00 Z"/>
</g>
<g fill="#000000" fill-opacity="0.00" stroke="None">
<path d="
M 49.00 30.00 
C 63.83 34.83 63.24 9.00 49.00 13.00
C 49.00 18.67 49.00 24.33 49.00 30.00 Z"/>
</g>
<g fill="#000000" fill-opacity="0.00" stroke="None">
<path d="
M 16.00 22.00 
C 13.55 19.14 10.77 14.97 7.00 14.00
C 10.88 18.92 13.73 23.46 7.00 28.00
C 10.47 29.23 12.20 23.15 16.00 22.00 Z"/>
</g>
<g fill="#C82070" fill-opacity="0.86" stroke="None">
<path d="
M 232.00 20.00 
C 233.65 10.53 224.92 16.82 220.00 15.00
C 221.92 21.18 215.37 35.83 225.00 35.00
C 224.81 29.51 223.37 17.06 232.00 20.00 Z"/>
</g>
<g fill="#C92171" fill-opacity="0.77" stroke="None">
<path d="
M 75.00 15.00 
C 67.42 12.69 68.99 20.09 69.00 25.00 C 69.01 29.91 67.46 37.37 75.00 35.00
C 75.00 28.33 75.00 21.67 75.00 15.00 Z"/>
</g>
<g fill="#C82071" fill-opacity="0.80" stroke="None">
<path d="
M 97.00 15.00 
C 89.51 15.30 79.12 12.90 77.33 22.33 C 75.54 31.76 82.53 37.44 91.00 34.00
C 91.15 43.63 82.63 34.81 78.00 37.00
C 78.56 43.99 92.11 46.12 95.69 39.69 C 99.28 33.27 95.72 22.29 97.00 15.00
M 89.00 19.00 
C 93.89 20.95 91.12 32.75 85.33 29.67 C 79.54 26.58 84.25 17.11 89.00 19.00 Z"/>
</g>
<g fill="#C92171" fill-opacity="0.77" stroke="None">
<path d="
M 106.00 15.00 
C 98.42 12.69 99.99 20.09 100.00 25.00 C 100.01 29.91 98.46 37.37 106.00 35.00
C 106.00 28.33 106.00 21.67 106.00 15.00 Z"/>
</g>
<g fill="#C81F70" fill-opacity="0.81" stroke="None">
<path d="
M 140.00 35.00 
C 139.25 29.70 142.10 19.26 137.22 15.78 C 132.34 12.30 123.03 15.26 123.00 21.00
C 128.68 17.22 137.26 22.08 130.01 23.01 C 122.76 23.94 119.60 28.84 123.78 34.22 C 127.96 39.61 135.17 32.16 140.00 35.00
M 135.00 26.00 
C 133.03 37.29 122.57 26.17 135.00 26.00 Z"/>
</g>
<g fill="#C82070" fill-opacity="0.81" stroke="None">
<path d="
M 212.00 15.00 
C 198.75 10.11 191.20 28.56 202.93 35.07 C 214.66 41.59 223.31 19.18 212.00 15.00
M 209.00 19.00 
C 213.87 21.09 210.91 33.33 205.33 30.67 C 199.74 28.00 203.22 16.52 209.00 19.00 Z"/>
</g>
<g fill="#C81F70" fill-opacity="0.79" stroke="None">
<path d="
M 251.00 27.00 
C 254.46 13.31 234.77 10.35 232.00 23.00 C 229.23 35.65 248.14 41.44 251.00 29.00
C 246.53 28.31 239.31 34.61 238.00 27.00
C 242.33 27.00 246.67 27.00 251.00 27.00
M 246.00 23.00 
C 243.18 23.16 236.41 23.78 239.26 20.25 C 242.11 16.73 245.68 20.20 246.00 23.00 Z"/>
</g>
<g fill="#000000" fill-opacity="0.00" stroke="None">
<path d="
M 89.00 19.00 
C 84.25 17.11 79.54 26.58 85.33 29.67 C 91.12 32.75 93.89 20.95 89.00 19.00 Z"/>
</g>
<g fill="#000000" fill-opacity="0.00" stroke="None">
<path d="
M 209.00 19.00 
C 203.22 16.52 199.74 28.00 205.33 30.67 C 210.91 33.33 213.87 21.09 209.00 19.00 Z"/>
</g>
<g fill="#000000" fill-opacity="0.00" stroke="None">
<path d="
M 246.00 23.00 
C 245.68 20.20 242.11 16.73 239.26 20.25 C 236.41 23.78 243.18 23.16 246.00 23.00 Z"/>
</g>
<g fill="#000000" fill-opacity="0.00" stroke="None">
<path d="
M 135.00 26.00 
C 122.57 26.17 133.03 37.29 135.00 26.00 Z"/>
</g>
<g fill="#000000" fill-opacity="0.00" stroke="None">
<path d="
M 27.00 29.00 
C 27.20 28.90 27.20 27.10 27.00 27.00
C 24.80 27.44 21.45 26.04 20.00 28.00
C 20.92 29.20 25.44 29.77 27.00 29.00 Z"/>
</g>
<g fill="#C92071" fill-opacity="0.76" stroke="None">
<path d="
M 27.00 29.00 
C 27.02 28.99 29.08 26.71 27.00 27.00
C 27.20 27.10 27.20 28.90 27.00 29.00 Z"/>
</g>
</svg>